<svg width="1200" height="171" viewBox="0 0 1200 171" fill="none" xmlns="http://www.w3.org/2000/svg">
<path d="M253.51 74.8833C256.216 88.2139 188.575 130.25 140.186 140.617C91.7978 150.985 29.8147 127.801 27.1087 114.47C24.4026 101.14 81.9983 102.71 130.387 92.3428C178.775 81.9755 250.804 61.5528 253.51 74.8833Z" fill="#FFD6D6"/>
<path d="M1089.38 67.1032C1089.38 90.65 1021.12 152.374 949.876 152.374C878.631 152.374 796.906 104.088 741.906 89.705C741.906 66.1583 878.631 89.705 949.876 89.705C1021.12 89.705 1089.38 43.5565 1089.38 67.1032Z" fill="#FFD6D6"/>
<path d="M835.406 89.4622C835.406 102.796 748.906 125.495 694.406 133.352C639.906 141.21 548.906 89.4622 548.906 89.4622C548.906 89.4622 638.349 74.7933 694.406 74.7933C750.463 74.7933 835.406 89.4622 835.406 89.4622Z" fill="#F2B885"/>
<path d="M114.406 109.723C114.406 120.22 30.5969 156.982 -21.594 156.982C-73.7849 156.982 -59.094 178.289 -59.094 167.792C-59.094 157.296 -50.2849 98.446 1.90596 98.446C54.0969 98.446 114.406 109.723 114.406 109.723Z" fill="#F2B885"/>
<path d="M198.406 86.7137C198.406 101.466 113.406 104.529 23.906 131.24C-14.2798 142.637 -48.094 119.281 -48.094 104.529C-48.094 89.7771 -15.8585 77.8181 23.906 77.8181C63.6705 77.8181 226.906 72.8445 198.406 86.7137Z" fill="#FFFAFA"/>
<path d="M549.406 93.3915C511.406 93.3915 430.906 146.3 349.406 119.075C267.906 91.8505 77.9401 115.212 131.44 101.764C184.94 88.3158 218.69 76.2622 269.5 76.2622C320.31 76.2622 549.406 73.8165 549.406 93.3915Z" fill="#FFFAFA"/>
<path d="M800 88.1489C720 88.1489 710.716 115.993 659.906 115.993C609.096 115.993 573.5 81.2492 474.5 115.993C474.5 96.4183 609.096 71.3034 659.906 71.3034C710.716 71.3034 800 68.5738 800 88.1489Z" fill="#FFFAFA"/>
<path d="M1048.41 70.7898C1004.41 90.5787 1001.72 122.157 950.906 122.157C900.096 122.157 828.5 76.3343 729.5 96.3677C729.5 76.7927 838.096 55.135 888.906 55.135C939.716 55.135 1048.41 51.2148 1048.41 70.7898Z" fill="#FFFAFA"/>
<path d="M1231.91 80.4437C1231.91 100.019 1243.72 127.702 1192.91 127.702C1142.1 127.702 1070.41 59.844 1002.41 104.073C1002.41 84.4979 1089.1 45.0001 1139.91 45.0001C1190.72 45.0001 1231.91 60.8687 1231.91 80.4437Z" fill="#FFFAFA"/>
<path d="M98.9279 64.886C98.9279 47.1829 170.132 0.777512 244.454 0.777512C318.777 0.777512 404.033 37.0798 461.409 47.8934C461.409 65.5964 318.777 47.8934 244.454 47.8934C170.132 47.8934 98.9279 82.589 98.9279 64.886Z" fill="#FFD6D6"/>
<rect x="1249.97" y="90" width="1263.31" height="39.3919" transform="rotate(180 1249.97 90)" fill="#FFFAFA"/>
<path d="M1028.39 50.1423C1028.39 39.0513 1117.06 36.7482 1210.43 16.666C1250.26 8.09784 1285.54 25.6571 1285.54 36.7482C1285.54 47.8392 1251.91 56.8303 1210.43 56.8303C1168.94 56.8303 998.656 60.5695 1028.39 50.1423Z" fill="#FFFAFA"/>
<path d="M662.225 45.1218C701.866 45.1218 785.844 5.34373 870.865 25.8121C955.885 46.2804 1154.06 28.7167 1098.25 38.8272C1042.44 48.9378 1007.23 58 954.223 58C901.217 58 662.225 59.8388 662.225 45.1218Z" fill="#FFFAFA"/>
<path d="M400.805 49.0633C484.261 49.0633 493.946 28.1292 546.951 28.1292C599.956 28.1292 637.09 54.2506 740.367 28.1292C740.367 42.8462 599.956 61.7282 546.951 61.7282C493.946 61.7282 400.805 63.7803 400.805 49.0633Z" fill="#FFFAFA"/>
<path d="M141.668 62.1143C187.569 47.2366 190.375 23.4949 243.38 23.4949C296.385 23.4949 371.074 57.9458 474.351 42.8842C474.351 57.6012 361.064 73.884 308.058 73.884C255.053 73.884 141.668 76.8313 141.668 62.1143Z" fill="#FFFAFA"/>
<path d="M-49.7592 54.8562C-49.7592 40.1393 -62.0796 19.3263 -9.07439 19.3263C43.9308 19.3263 118.718 70.3436 189.655 37.0913C189.655 51.8083 99.2204 81.5037 46.2152 81.5037C-6.78998 81.5037 -49.7592 69.5732 -49.7592 54.8562Z" fill="#FFFAFA"/>
</svg>
