<svg id="visual" viewBox="0 0 1200 260" width="1200" height="260" xmlns="http://www.w3.org/2000/svg" xmlns:xlink="http://www.w3.org/1999/xlink" version="1.1"><rect x="0" y="0" width="1200" height="260" fill="#fde7e8"></rect><path d="M0 25L33.3 39.3C66.7 53.7 133.3 82.3 200 99C266.7 115.7 333.3 120.3 400 106.2C466.7 92 533.3 59 600 43.3C666.7 27.7 733.3 29.3 800 56C866.7 82.7 933.3 134.3 1000 141.2C1066.7 148 1133.3 110 1166.7 91L1200 72L1200 261L1166.7 261C1133.3 261 1066.7 261 1000 261C933.3 261 866.7 261 800 261C733.3 261 666.7 261 600 261C533.3 261 466.7 261 400 261C333.3 261 266.7 261 200 261C133.3 261 66.7 261 33.3 261L0 261Z" fill="#fbc9c9" stroke-linecap="round" stroke-linejoin="miter"></path></svg>