<svg width="1200" height="131" viewBox="0 0 1200 131" fill="none" xmlns="http://www.w3.org/2000/svg">
<path d="M267.51 37.0877C270.216 50.0633 202.575 90.98 154.186 101.071C105.798 111.163 43.8147 88.5963 41.1087 75.6207C38.4026 62.645 95.9983 64.1736 144.387 54.0823C192.775 43.991 264.804 24.112 267.51 37.0877Z" fill="#EB9294"/>
<path d="M1103.38 29.5147C1103.38 52.4345 1035.12 112.515 963.876 112.515C892.631 112.515 810.906 65.5149 755.906 51.5147C755.906 28.5949 892.631 51.5147 963.876 51.5147C1035.12 51.5147 1103.38 6.59491 1103.38 29.5147Z" fill="#EB9294"/>
<path d="M849.406 51.2784C849.406 64.257 762.906 86.3521 708.406 94C653.906 101.648 562.906 51.2783 562.906 51.2783C562.906 51.2783 652.349 37 708.406 37C764.463 37 849.406 51.2784 849.406 51.2784Z" fill="#F2B885"/>
<path d="M128.406 71C128.406 81.2173 44.5969 117 -7.594 117C-59.7849 117 -45.094 137.74 -45.094 127.523C-45.094 117.306 -36.2849 60.023 15.906 60.023C68.0969 60.023 128.406 71 128.406 71Z" fill="#F2B885"/>
<rect y="-3" width="1211" height="51" fill="#FFFAFA"/>
<path d="M212.406 48.6031C212.406 62.9625 127.406 65.9442 37.906 91.9442C-0.279842 103.037 -34.094 80.3036 -34.094 65.9442C-34.094 51.5848 -1.8585 39.9442 37.906 39.9442C77.6705 39.9442 240.906 35.1031 212.406 48.6031Z" fill="#FFFAFA"/>
<path d="M563.406 55.1031C525.406 55.103 444.906 106.603 363.406 80.1031C281.906 53.6031 178.5 64 136.5 69.5C94.5 75 236.69 34.5 287.5 34.5C338.31 34.5 563.406 36.0492 563.406 55.1031Z" fill="#FFFAFA"/>
<path d="M814 48.7556C733.631 48.7556 724.305 75 673.26 75C622.216 75 586.456 42.2524 487 75C487 56.5498 618.292 26 669.336 26C720.381 26 814 30.3053 814 48.7556Z" fill="#FFFAFA"/>
<path d="M1062.41 33.1031C1018.41 52.3651 1015.72 83.1031 964.906 83.1031C914.096 83.1031 842.5 38.5 743.5 58C743.5 38.9462 852.096 17.8651 902.906 17.8651C953.716 17.8651 1062.41 14.0493 1062.41 33.1031Z" fill="#FFFAFA"/>
<path d="M1245.91 42.5001C1245.91 61.5539 1257.72 88.5001 1206.91 88.5001C1156.1 88.5001 1084.41 22.4488 1016.41 65.5001C1016.41 46.4462 1103.1 8.00005 1153.91 8.00005C1204.72 8.00005 1245.91 23.4462 1245.91 42.5001Z" fill="#FFFAFA"/>
</svg>
