<svg width="1200" height="965" viewBox="0 0 1200 965" fill="none" xmlns="http://www.w3.org/2000/svg">
<path d="M1063.74 350.232C1151.59 150.479 1401.86 496.779 1371.47 625.99C1341.07 755.201 1201.63 943.374 1032.32 903.544C903.114 873.145 733.958 759.726 809.17 619.4C884.382 479.075 975.896 549.986 1063.74 350.232Z" fill="#F1ADAE"/>
<path d="M516 485.5C468.887 558.5 472.682 650 344 650C215.318 650 190 568.343 190 485.5C190 402.657 265.818 342 394.5 342C485.285 346.834 607 344.5 516 485.5Z" fill="#F1ADAE"/>
<path d="M-112.228 424.945C-328.542 406.709 -81.7326 65.2369 49.7758 52.5434C181.284 39.8498 403.111 109.566 419.471 279.064C431.958 408.427 378.888 601.066 222.629 575.743C66.3702 550.42 104.086 443.182 -112.228 424.945Z" fill="#FFE4E4"/>
<path d="M1119 265.5C1071.89 338.5 1075.68 430 947 430C818.318 430 793 348.343 793 265.5C793 182.657 868.818 122 997.5 122C1088.28 126.834 1210 124.5 1119 265.5Z" fill="#FFD6D6"/>
<path d="M-125.135 413.457C-342.526 394.49 -95.0657 46.1726 37.0591 33.4196C169.184 20.6665 392.195 92.2135 408.905 265.331C421.658 397.456 368.639 594.094 211.583 567.985C54.5273 541.877 92.2551 432.425 -125.135 413.457Z" fill="#FFD6D6"/>
<path d="M29.3019 815.53C-55.5031 796.641 -140.015 831.918 -184.619 711.214C-229.224 590.509 -161.405 538.456 -83.6985 509.741C-5.99175 481.025 77.1854 531.117 121.79 651.822C148.724 738.654 193.103 852.014 29.3019 815.53Z" fill="#F1ADAE"/>
</svg>
