<svg width="1200" height="960" viewBox="0 0 1200 960" fill="none" xmlns="http://www.w3.org/2000/svg">
<path d="M1152.07 806.461C1164.64 846.508 1025.83 841.208 909.379 877.77C792.929 914.332 688.335 911.508 675.762 871.461C663.188 831.415 828.36 733.41 944.811 696.848C1061.26 660.287 1143.12 739.57 1152.07 806.461Z" fill="#B15153"/>
<path d="M477 747.224C477 789.062 312.692 839.328 242 839.328C171.308 839.328 61 805.412 61 763.574C61 721.735 165.5 693.269 219 729.784C387.5 808.432 477 705.385 477 747.224Z" fill="#B15153"/>
<rect y="810" width="1200" height="150" fill="#FCC9C9"/>
<path d="M662.5 804.666C662.5 858.237 396.06 901.666 218.5 901.666C40.9405 901.666 -103 858.238 -103 804.666C64 639.667 40.9405 804.666 218.5 804.666C396.06 804.666 523 564.668 662.5 804.666Z" fill="#FCC9C9"/>
<path d="M1231 841.666C1231 880.05 1072.58 863.666 889.5 863.666C706.418 863.666 513.5 865.666 618 745.166C771.5 882.166 971.418 710.666 1154.5 710.666C1337.58 710.666 1231 803.282 1231 841.666Z" fill="#FCC9C9"/>
</svg>
