<svg width="1200" height="313" viewBox="0 0 1200 313" fill="none" xmlns="http://www.w3.org/2000/svg">
<path d="M1152.07 159.462C1164.64 199.508 1025.83 194.208 909.379 230.77C792.929 267.332 688.335 264.508 675.762 224.462C663.188 184.415 828.36 86.4107 944.811 49.8487C1061.26 13.2868 1143.12 92.5704 1152.07 159.462Z" fill="#B15153"/>
<path d="M477 100.224C477 142.062 312.692 192.328 242 192.328C171.308 192.328 61 158.412 61 116.574C61 74.7353 165.5 46.269 219 82.7839C387.5 161.432 477 58.3853 477 100.224Z" fill="#B15153"/>
<rect y="163" width="1200" height="150" fill="#FCC9C9"/>
<path d="M662.5 157.666C662.5 211.237 396.06 254.666 218.5 254.666C40.9405 254.666 -103 211.238 -103 157.666C64 -7.33278 40.9405 157.666 218.5 157.666C396.06 157.666 523 -82.3324 662.5 157.666Z" fill="#FCC9C9"/>
<path d="M1231 194.666C1231 233.05 1072.58 216.666 889.5 216.666C706.418 216.666 513.5 218.666 618 98.1663C771.5 235.166 971.418 63.6663 1154.5 63.6663C1337.58 63.6663 1231 156.282 1231 194.666Z" fill="#FCC9C9"/>
</svg>
