<?xml version="1.0"?>
<svg width="1200" height="260" xmlns="http://www.w3.org/2000/svg" xmlns:svg="http://www.w3.org/2000/svg" xmlns:xlink="http://www.w3.org/1999/xlink" version="1.1">
 <g class="layer">
  <title>Layer 1</title>
  <rect fill="#fde7e8" height="260" id="svg_1" transform="matrix(1 0 0 1 0 0)" width="1200" x="-0.4" y="0.18"/>
  <path d="m-2.2,78.5l22.83,-19.64c62.4,-21.6 142.47,26.94 184.17,59.64c41.7,32.7 146.3,36.4 184,-1.8c37.7,-38.2 175.3,-114.3 244,-88.9c68.7,25.4 66.3,49 133,75.7c66.7,26.7 143.3,29.4 202,13.2c58.7,-16.2 139.2,-70.11 194.31,-69.16l37.54,10.79l0.15,201.17l-33.3,0c-33.4,0 -100,0 -166.7,0c-66.7,0 -133.3,0 -200,0c-66.7,0 -133.3,0 -200,0c-66.7,0 -133.3,0 -200,0c-66.7,0 -133.3,0 -200,0c-66.7,0 -133.3,0 -166.7,0l-33.3,0l-2,-181z" fill="#fbc9c9" id="svg_2" stroke-linecap="round" transform="rotate(0.00856571 598.799 141.108)"/>
  <image height="0" id="svg_15" width="0" x="295.4" xlink:href="./images/logo.svg" y="111.34"/>
  <image height="0" id="svg_14" width="0" x="252.72" xlink:href="./images/logo.svg" y="114.69"/>
  <path d="m276.99,120.13c0,0 1.67,4.18 1.67,4.14c0,-0.04 -1.67,-4.14 -1.67,-4.14z" fill="#b15053" id="svg_18" stroke-linecap="round"/>
  <path d="m174.01,96.7c-2.71,-2.96 16.81,-12.19 25.16,-15.6c8.35,-3.41 11.22,-4.68 25.35,-6.67c14.13,-2 26.94,-5.07 42.73,0.21c15.79,5.28 18.63,7.59 29.77,12.83c11.13,5.25 15.96,9.05 20.78,12.12c4.82,3.07 13.58,5.65 19.73,7.7c6.15,2.04 13.4,2.84 21.08,4.47l12.33,1.7c10.88,1.34 19.48,-1.42 20.56,-1.42c1.07,0 9.18,-4.88 5.29,-1.76c-3.89,3.12 -5.57,4.7 -8.23,7.3c-2.65,2.6 -7.69,6.97 -10.61,9.23c-2.92,2.26 -6.9,4.57 -11.63,6.8c-4.73,2.23 -4.97,2.72 -18.33,7.21c-13.37,4.49 -11.08,3.14 -19.6,4.22c-8.53,1.08 -15.76,1.97 -17.55,1.97c-1.79,0 -13.44,0.58 -20.31,0.31c-6.87,-0.27 -9.09,0.37 -23.19,-2.01c-14.1,-2.38 -18.95,-2.75 -32.76,-9.57l-18.07,-9.67c-7.02,-3.6 -18.46,-12.36 -20.22,-13.96c-1.76,-1.6 -19.57,-12.44 -22.28,-15.4z" fill="#b15053" id="svg_20" stroke-linecap="round" transform="matrix(1 0 0 1 0 0)"/>
  <line fill="none" id="svg_21" stroke-linecap="round" x1="405.32" x2="527.45" y1="190.43" y2="110.43"/>
  <path d="m1125.53,99.57l11.91,-14.47l-11.91,14.47z" fill="#b15053" id="svg_25" stroke-linecap="round"/>
  <path d="m453.22,122.46c0.58,0 10.53,-18.13 29.82,-18.13c19.3,0 60.82,15.79 60.82,15.79c0,0 32.16,12.87 32.16,12.63c0,-0.23 23.39,3.74 36.84,20.7c13.45,16.96 16.37,15.79 15.79,28.65c-0.58,12.87 0.58,15.79 -5.26,21.05c-5.85,5.26 -10.53,10.53 -25.73,10.53c-15.2,0 -32.75,2.34 -42.11,-2.34c-9.36,-4.68 -15.79,-1.17 -32.75,-16.96c-16.96,-15.79 -4.09,8.77 -36.84,-31.58c-32.75,-40.35 -32.75,-40.35 -32.75,-40.35z" fill="#fbc9c9" id="svg_34" stroke-linecap="round"/>
  <path d="m811.66,118.64c-17.57,-5.2 26.66,-37.44 64.57,-52.76c37.91,-15.31 103.93,-43.89 127.69,-38.19c23.76,5.7 -45.94,9.58 -39.55,5.53c6.39,-4.05 49.83,-9.13 54.22,-7.94c4.38,1.2 22.12,1.32 66.37,18.77c44.25,17.45 37.64,11.84 30.44,13.88c-7.21,2.04 -12.3,4.44 -17.8,6.43c-5.5,1.98 -19.74,8.55 -55.28,24.41c-35.54,15.85 -37.96,17.36 -41.57,18.61c-3.61,1.25 -20.43,8.56 -68.35,17.48c-47.92,8.92 -103.16,-1.02 -120.73,-6.22z" fill="#b15053" id="svg_37" stroke-linecap="round" transform="matrix(1 0 0 1 0 0)"/>
 </g>
</svg>