<svg width="666" height="193" viewBox="0 0 666 193" fill="none" xmlns="http://www.w3.org/2000/svg">
<path d="M4.05623 121.954C1.34414 121.954 -0.00791845 120.902 3.48832e-05 118.798V118.191C3.48832e-05 116.889 1.10952 114.859 3.3285 112.1C5.37802 109.777 6.55097 106.898 6.6689 103.901V33.1895C6.55271 30.1925 5.37955 27.3131 3.3285 24.9906C1.10952 22.2318 3.48832e-05 20.1977 3.48832e-05 18.8883V18.2924C3.48832e-05 16.1884 1.35209 15.1327 4.05623 15.1254H79.8595C81.3706 14.9916 82.8811 15.3852 84.0946 16.2288C85.1116 17.2994 85.7378 18.6393 85.8841 20.058L89.7852 40.2187C89.9217 40.8147 89.9043 41.4322 89.7343 42.0208C89.5643 42.6094 89.2466 43.1527 88.807 43.6064C88.3431 44.0429 87.7839 44.3829 87.1668 44.6036C86.5496 44.8243 85.8886 44.9208 85.228 44.8865H84.2497C81.6669 44.7634 79.2296 43.7426 77.4257 42.0284C75.1778 40.1716 73.1756 38.0751 71.4607 35.7827C69.666 33.4158 67.4986 31.3106 65.0305 29.5369C62.8065 27.7678 59.9932 26.7589 57.0612 26.6789H47.9586C42.5265 26.6789 39.8144 29.2868 39.8224 34.5026V61.8912H53.7208C55.8292 61.9156 57.8669 61.1886 59.4114 59.8608C60.9409 58.6324 62.1865 57.1311 63.0739 55.4468C63.8623 53.891 64.8175 52.4123 65.9252 51.0329C66.9989 49.6866 68.0845 49.0025 69.1702 49.0025H70.8046C73.0792 49.0025 74.2166 50.2568 74.2166 52.7654V82.1071C74.2166 84.6157 73.0792 85.87 70.8046 85.87H69.1702C68.51 85.8037 67.8748 85.5993 67.3126 85.2724C66.7504 84.9455 66.276 84.5046 65.9252 83.983C64.8042 82.687 63.8475 81.2764 63.0739 79.7788C62.1966 78.1454 60.9471 76.7073 59.4114 75.5634C57.8244 74.3174 55.8022 73.6469 53.7208 73.6765H39.8462V98.3505C39.7732 101.328 40.6486 104.26 42.3635 106.781C44.0416 109.187 46.7815 110.39 50.5832 110.39H62.2985C65.1677 110.326 67.9025 109.252 69.9456 107.388C72.2539 105.463 74.2045 103.2 75.7197 100.69C77.1775 98.2281 79.0095 95.9724 81.1598 93.9917C82.0209 93.0892 83.0703 92.3571 84.245 91.8394C85.4198 91.3217 86.6956 91.0291 87.9957 90.9792H89.6182C90.2536 90.9508 90.8853 91.0839 91.4447 91.364C92.0041 91.6441 92.4699 92.0606 92.7916 92.5682C93.4868 93.5683 93.7508 94.7733 93.5312 95.9449L89.9522 116.713C89.812 118.202 89.1882 119.618 88.1627 120.773C86.9782 121.676 85.4557 122.108 83.9276 121.976L4.05623 121.954Z" fill="#B15153"/>
<path d="M203.526 103.879C199.12 97.026 196.324 89.3919 195.319 81.4733C194.314 73.5547 195.122 65.5291 197.692 57.9187C197.883 57.3999 197.883 56.8373 197.692 56.3186C195.957 51.5159 192.927 47.2016 188.888 43.783C182.061 38.145 173.188 35.0951 164.038 35.242C154.327 35.242 146.799 37.6329 141.454 42.4147C141.082 42.7671 140.605 43.0092 140.084 43.1103C139.563 43.2113 139.021 43.1668 138.527 42.9822C138.034 42.7977 137.611 42.4815 137.312 42.0739C137.013 41.6663 136.852 41.1857 136.849 40.6932V40.638C136.93 39.7533 136.788 38.8633 136.434 38.0381C136.08 37.2128 135.524 36.4747 134.809 35.882C133.449 34.8558 131.469 34.8889 128.844 35.9593L98.351 49.9735C94.9748 51.6508 93.3046 53.284 93.3046 54.8289V55.5462C93.3046 56.9807 94.1993 58.4484 96.0127 59.9601C97.5477 61.2402 99.0906 62.6453 100.642 64.1755C102.934 66.4367 104.213 69.4181 104.221 72.5178V101.915C104.221 105.137 102.733 108.4 99.7587 111.703C96.7842 115.006 95.2929 117.43 95.2849 118.975V119.692C95.2849 122.208 96.9074 123.466 100.152 123.466H146.942C150.175 123.466 151.809 122.208 151.809 119.692V118.975C151.809 117.419 150.306 114.991 147.336 111.703C144.365 108.414 142.862 105.137 142.862 101.915V63.8223C142.862 53.5231 146.043 48.3735 152.406 48.3735C154.097 48.2873 155.773 48.7151 157.177 49.5917C158.582 50.4683 159.638 51.7456 160.184 53.2288C161.592 56.451 162.558 62.3142 163.083 70.8185L165.028 101.904C165.19 105.421 164.026 108.881 161.735 111.692C159.262 114.98 158.029 117.404 158.037 118.964V119.681C158.037 122.197 159.655 123.455 162.892 123.455H197.096C197.538 123.46 197.974 123.361 198.364 123.168C198.754 122.975 199.085 122.694 199.326 122.351C201.222 119.588 203.84 117.311 206.938 115.73C207.247 115.571 207.518 115.356 207.736 115.099C207.953 114.841 208.113 114.546 208.205 114.23C208.298 113.914 208.321 113.584 208.273 113.26C208.225 112.936 208.108 112.624 207.928 112.343L207.367 111.471" fill="#B15153"/>
<path d="M313.795 125.629C310.82 125.629 309.337 124.477 309.345 122.175V121.524C309.345 120.1 310.538 117.871 312.995 114.903C315.232 112.358 316.509 109.209 316.634 105.931V35.3082C316.534 32.0699 315.251 28.9585 312.995 26.4803C310.609 23.5781 309.345 21.5146 309.345 20.3118V19.6497C309.345 18.2298 310.828 16.8578 313.795 15.5336L344.216 1.74003C346.829 0.636536 348.929 0.537236 350.539 1.40899C351.313 1.82002 351.947 2.42359 352.369 3.15118C352.791 3.87876 352.983 4.70117 352.925 5.52498V105.887C352.925 108.856 354.285 111.835 357.017 114.859C359.749 117.882 361.109 120.1 361.109 121.48V122.131C361.109 124.437 359.618 125.585 356.659 125.585L313.795 125.629Z" fill="#B15153"/>
<path d="M303.941 37.0075C307.329 37.3496 309.035 39.1594 309.035 42.4147V43.1099C309.035 44.0368 308.307 45.2286 306.864 46.6852C305.21 48.4014 303.754 50.2727 302.521 52.2688C301.037 54.6837 300.291 57.4261 300.362 60.2029V106.064C300.362 121.057 295.709 132.566 286.404 140.592C277.098 148.618 265.47 152.631 251.52 152.631C237.324 152.631 225.7 150.538 216.649 146.352C207.598 142.166 203.072 136.649 203.072 129.8C203.051 126.472 204.399 123.26 206.842 120.818C209.348 118.199 212.927 116.889 217.579 116.889C221.071 116.812 224.499 117.759 227.374 119.593C230.075 121.325 232.331 123.585 233.983 126.214C235.574 128.833 237.145 131.407 238.695 133.938C240.124 136.4 241.969 138.635 244.159 140.559C246.128 142.354 248.746 143.412 251.508 143.527C255.159 143.638 258.177 141.574 260.563 137.337C262.949 133.099 264.142 126.269 264.142 116.845V114.053C258.821 116.71 252.841 118.033 246.796 117.893C235.134 118.085 223.846 114.081 215.313 106.726C206.516 99.3399 202.122 89.1217 202.13 76.0711C202.13 63.403 206.56 52.9677 215.42 44.7651C224.28 36.5625 234.743 32.4649 246.808 32.4722C255.612 32.4722 262.715 34.5063 268.115 38.5745C268.747 34.624 272.004 33.0571 277.921 33.8626L303.941 37.0075ZM255.338 108.679C256.594 108.752 257.849 108.517 258.976 107.997C260.103 107.478 261.062 106.693 261.756 105.722C263.525 103.181 264.381 100.188 264.202 97.1698V62.9616C264.281 57.7571 262.745 52.6408 259.776 48.219C256.817 43.8565 253.58 41.6753 250.065 41.6753C243.145 41.6753 239.375 47.7224 238.755 59.8167C238.238 67.8354 239.463 77.8918 242.43 89.986C245.396 102.08 249.699 108.311 255.338 108.679Z" fill="#B15153"/>
<path d="M410.678 115.775C408.412 113.542 407.084 110.634 406.932 107.576V56.131C406.936 55.8276 406.908 55.5246 406.849 55.2261C403.719 59.0811 399.254 61.827 394.2 63.0058C389.146 64.1845 383.808 63.7249 379.076 61.7036L371.154 65.301C368.434 66.5038 367.086 67.7618 367.086 69.0639V69.6598C367.086 70.7633 368.196 72.6502 370.427 75.3096C372.484 77.5678 373.657 80.4023 373.755 83.3541V107.576C373.646 110.572 372.476 113.452 370.427 115.775C368.196 118.544 367.086 120.564 367.086 121.877V122.473C367.086 124.591 368.434 125.629 371.154 125.629H410.356C413.064 125.629 414.412 124.591 414.412 122.473V121.877C414.412 120.564 413.172 118.544 410.678 115.775Z" fill="#B15153"/>
<path d="M388.632 58.7352C401.216 58.7352 411.418 49.2989 411.418 37.6586C411.418 26.0183 401.216 16.582 388.632 16.582C376.047 16.582 365.845 26.0183 365.845 37.6586C365.845 49.2989 376.047 58.7352 388.632 58.7352Z" fill="#B15153"/>
<path d="M459.043 125.629C446.158 125.629 435.501 123.694 427.07 119.824C418.64 115.955 414.42 110.643 414.412 103.89C414.412 99.476 415.876 96.1877 418.803 94.0248C422.076 91.7754 426.086 90.6374 430.16 90.8026C432.327 90.7127 434.491 91.0247 436.526 91.7202C438.56 92.4157 440.424 93.4807 442.006 94.8524C444.809 97.2668 446.815 100.366 447.793 103.791C448.6 106.947 449.945 109.964 451.777 112.729C452.472 113.955 453.516 114.981 454.797 115.697C456.078 116.413 457.546 116.791 459.043 116.79C464.22 116.79 466.813 113.965 466.821 108.315C466.884 106.317 466.438 104.333 465.52 102.524C464.602 100.715 463.238 99.13 461.536 97.8981C457.775 95.1428 453.478 93.0789 448.878 91.8178C443.963 90.4054 439.016 88.809 434.037 87.0287C429.015 85.2158 424.611 82.1901 421.284 78.267C417.761 74.2209 416.003 68.9389 416.011 62.4209C416.011 53.9461 419.988 47.0346 427.941 41.6864C435.894 36.3381 446.321 33.6677 459.222 33.675C471.843 33.675 482.135 35.7937 490.096 40.0311C498.058 44.2685 502.034 49.5836 502.026 55.9765C502.033 57.6548 501.644 59.3143 500.886 60.8391C500.127 62.3639 499.018 63.7171 497.636 64.8044C494.702 67.2639 490.857 68.5838 486.899 68.4901C483.451 68.6252 480.052 67.6975 477.236 65.8528C474.842 64.2346 472.98 62.0345 471.855 59.4966C470.79 57.0322 469.859 54.5457 469.064 52.0371C468.389 49.7845 467.42 47.6167 466.177 45.5817C465.743 44.7779 465.076 44.102 464.25 43.6302C463.424 43.1583 462.471 42.9093 461.5 42.9112C457.245 42.9112 455.118 45.9201 455.118 51.9378C455.028 54.0464 455.426 56.1483 456.286 58.1028C457.146 60.0574 458.448 61.8193 460.104 63.2706C463.572 66.2379 467.678 68.4942 472.154 69.8915C476.862 71.4364 481.578 73.0659 486.303 74.78C491.057 76.5294 495.218 79.4253 498.352 83.1665C501.668 87.0361 503.331 91.9797 503.339 97.9974C503.339 106.09 499.418 112.711 491.576 117.86C483.734 123.01 472.889 125.599 459.043 125.629Z" fill="#B15153"/>
<path d="M569.013 101.242L567.963 76.9649C567.51 70.2226 566.615 65.4996 565.315 62.8071C564.787 61.5663 563.852 60.5101 562.64 59.7874C561.429 59.0648 560.002 58.7122 558.563 58.7794C552.995 58.7794 550.212 63.3147 550.212 72.3854V105.755C550.212 108.602 551.524 111.482 554.149 114.373C556.773 117.264 558.085 119.416 558.085 120.784V121.413C558.085 123.62 556.658 124.724 553.803 124.724H512.561C509.713 124.724 508.286 123.62 508.278 121.413V120.784C508.278 119.416 509.59 117.279 512.215 114.373C514.839 111.482 516.151 108.602 516.151 105.755V36.6434C516.212 34.5917 515.452 32.5917 514.016 31.0266C512.658 29.5727 511.199 28.2015 509.65 26.9217C509.013 26.4853 508.485 25.9273 508.103 25.2857C507.72 24.644 507.491 23.9337 507.431 23.2029V22.5629C507.431 20.5619 508.854 18.9287 511.702 17.6634L542.135 5.32637C544.306 4.48771 546.016 4.35531 547.265 4.92913C548.458 5.51398 549.15 6.80503 549.15 8.80235V53.4054C554.176 49.3004 560.734 47.2442 568.822 47.2369C576.774 47.1345 584.498 49.6936 590.571 54.4427C596.79 59.2392 600.369 67.1217 601.308 78.0904L603.694 105.766C603.921 108.514 603.992 110.831 604.326 114.23C604.636 116.232 604.728 118.258 604.601 120.277V121.093C604.601 122.274 604.493 123.234 604.493 123.874C604.493 124.105 604.394 124.327 604.217 124.491C604.04 124.654 603.801 124.746 603.551 124.746L569.896 108.458" fill="#B15153"/>
<path d="M568.918 95.7242C568.918 95.7242 564.802 133.243 608.191 144.653C616.232 146.761 624.75 146.705 635.01 144.454C649.612 141.254 669.022 123.179 665.074 100.182C658.81 63.6678 613.333 66.4376 614.729 89.7543C614.872 93.8483 616.375 100.955 623.51 102.345C625.251 102.687 628.389 102.257 630.023 102.93C642.526 108.116 641.81 122.55 633.376 128.034C625.991 132.846 606.784 131.113 604.469 112.199C602.906 99.3878 602.525 92.8 602.525 92.8L568.918 95.7242Z" fill="#B15153"/>
<path d="M334.577 155.522C335.478 155.487 336.373 155.661 337.182 156.029C337.991 156.398 338.687 156.948 339.206 157.63C340.45 159.484 341.035 161.654 340.876 163.832C340.876 169.548 339.492 174.09 336.724 177.46C335.515 179.047 333.905 180.336 332.033 181.215C330.162 182.094 328.086 182.536 325.987 182.503C324.323 182.608 322.662 182.268 321.202 181.522C319.742 180.776 318.545 179.657 317.756 178.298C316.719 179.679 315.318 180.79 313.684 181.527C312.051 182.263 310.24 182.599 308.426 182.503C307.212 182.508 306.004 182.336 304.847 181.995C303.628 181.606 302.493 181.019 301.495 180.262C300.27 179.299 299.361 178.037 298.87 176.621C298.182 174.746 297.855 172.774 297.904 170.795V162.86C297.869 161.856 297.446 160.897 296.711 160.157C296.131 159.665 295.717 159.029 295.518 158.325V158.115C295.525 157.814 295.647 157.524 295.864 157.299C296.103 157.051 296.436 156.897 296.795 156.869L305.492 155.765C307.365 155.555 308.295 156.074 308.295 157.332L308.056 174.712C307.973 175.768 308.218 176.825 308.76 177.758C308.952 178.106 309.244 178.399 309.604 178.603C309.964 178.807 310.378 178.916 310.8 178.916C312.471 178.916 313.771 177.813 314.678 175.606C315.613 173.314 316.078 170.882 316.05 168.433V162.816C316.019 161.811 315.595 160.85 314.857 160.113C314.279 159.619 313.865 158.984 313.664 158.281V158.071C313.664 157.343 314.105 156.968 315 156.824L322.993 155.721C324.818 155.434 325.737 155.975 325.737 157.343L325.558 174.502C325.486 177.46 326.393 178.916 328.302 178.916C330.21 178.916 331.881 177.758 333.432 175.44C334.886 173.336 335.675 170.897 335.71 168.4C335.729 167.442 335.411 166.505 334.804 165.73C334.277 165.024 333.619 164.411 332.859 163.92C332.083 163.42 331.419 162.787 330.902 162.055C330.293 161.239 329.975 160.266 329.996 159.274C329.972 158.767 330.066 158.262 330.272 157.791C330.478 157.321 330.79 156.897 331.189 156.549C331.652 156.178 332.19 155.897 332.771 155.721C333.353 155.545 333.967 155.477 334.577 155.522Z" fill="#CC8343"/>
<path d="M345.421 181.962C344.491 181.962 344.025 181.62 344.025 180.936V180.726C344.201 179.966 344.616 179.27 345.218 178.729C345.942 177.982 346.364 177.027 346.411 176.025V165.774C346.375 164.763 345.952 163.797 345.218 163.048C344.653 162.554 344.241 161.929 344.025 161.238V161.029C344.025 160.598 344.467 160.179 345.362 159.782L354.178 155.787C354.467 155.632 354.792 155.542 355.125 155.525C355.459 155.507 355.793 155.563 356.099 155.688C356.33 155.812 356.518 155.993 356.643 156.212C356.767 156.431 356.823 156.677 356.802 156.924V176.025C356.854 177.047 357.323 178.014 358.115 178.729C358.763 179.254 359.222 179.951 359.427 180.726V180.936C359.427 181.62 358.938 181.962 357.972 181.962H345.421ZM351.661 152.874C349.895 152.944 348.166 152.396 346.817 151.34C346.23 150.854 345.761 150.258 345.44 149.593C345.118 148.927 344.952 148.207 344.952 147.478C344.952 146.749 345.118 146.028 345.44 145.363C345.761 144.697 346.23 144.102 346.817 143.616C348.164 142.555 349.893 142.003 351.661 142.071C353.405 142.01 355.11 142.562 356.433 143.616C357.023 144.1 357.495 144.695 357.819 145.361C358.142 146.026 358.309 146.748 358.309 147.478C358.309 148.208 358.142 148.929 357.819 149.595C357.495 150.261 357.023 150.855 356.433 151.34C355.108 152.39 353.404 152.938 351.661 152.874Z" fill="#CC8343"/>
<path d="M374.065 182.503C372.77 182.565 371.476 182.365 370.272 181.917C369.069 181.469 367.986 180.784 367.098 179.909C365.404 178.188 364.557 175.723 364.557 172.516V159.727H362.338C362.161 159.733 361.984 159.705 361.819 159.645C361.654 159.585 361.504 159.494 361.378 159.378C361.253 159.262 361.155 159.124 361.09 158.971C361.025 158.818 360.995 158.655 361.002 158.491V157.299C360.978 157.131 360.997 156.961 361.056 156.801C361.115 156.642 361.212 156.496 361.341 156.377C361.47 156.258 361.627 156.167 361.8 156.113C361.973 156.058 362.157 156.041 362.338 156.063H363.447C365.13 156.098 366.77 155.569 368.064 154.573C369.363 153.555 370.247 152.158 370.57 150.612C370.761 149.674 371.285 149.21 372.144 149.21H373.445C374.495 149.21 375.02 149.674 375.02 150.612V156.063H380.985C381.164 156.055 381.342 156.083 381.509 156.144C381.675 156.204 381.826 156.297 381.951 156.416C382.076 156.532 382.174 156.669 382.24 156.821C382.306 156.973 382.337 157.135 382.333 157.299V158.546C382.337 158.711 382.305 158.875 382.24 159.028C382.174 159.182 382.076 159.322 381.951 159.44C381.824 159.555 381.672 159.645 381.506 159.703C381.34 159.762 381.162 159.789 380.985 159.782H375.02V172.737C374.975 173.51 375.248 174.271 375.783 174.866C376.011 175.116 376.296 175.316 376.618 175.452C376.94 175.587 377.291 175.655 377.644 175.65C378.423 175.675 379.193 175.502 379.873 175.149C380.552 174.797 381.114 174.28 381.498 173.653C381.722 173.36 382.06 173.159 382.44 173.09C382.595 173.06 382.755 173.062 382.909 173.094C383.064 173.126 383.209 173.189 383.335 173.277C383.461 173.363 383.562 173.477 383.628 173.608C383.695 173.739 383.725 173.883 383.717 174.028C383.738 176.256 382.807 178.401 381.128 179.998C380.207 180.851 379.102 181.515 377.885 181.947C376.668 182.378 375.367 182.568 374.065 182.503Z" fill="#CC8343"/>
<path d="M416.548 176.025C416.647 176.99 417.026 177.913 417.645 178.696C418.175 179.274 418.522 179.977 418.648 180.726V180.936C418.648 181.62 418.182 181.962 417.24 181.962H405.656C404.725 181.962 404.26 181.62 404.26 180.936V180.726C404.413 179.982 404.784 179.291 405.334 178.729C406.001 177.963 406.364 177.009 406.36 176.025L405.775 165.994C405.768 164.165 405.362 162.356 404.582 160.676C404.315 160.179 403.898 159.764 403.381 159.482C402.865 159.2 402.271 159.063 401.671 159.087C401.105 159.062 400.543 159.18 400.043 159.426C399.544 159.673 399.125 160.04 398.832 160.488C398.135 161.657 397.804 162.983 397.877 164.317V176.08C397.926 177.094 398.396 178.051 399.19 178.751C399.839 179.267 400.297 179.957 400.502 180.726V180.936C400.502 181.62 400.037 181.962 399.094 181.962H386.437C385.542 181.962 385.1 181.62 385.1 180.936V180.726C385.292 179.96 385.738 179.269 386.377 178.751C387.156 178.043 387.616 177.089 387.665 176.08V151.042C387.647 150.547 387.509 150.062 387.262 149.623C387.014 149.183 386.663 148.801 386.234 148.504C385.279 147.754 384.802 147.158 384.802 146.727V146.562C384.802 145.911 385.256 145.458 386.15 145.05L395.36 141.276C395.598 141.137 395.87 141.054 396.151 141.035C396.431 141.016 396.713 141.061 396.971 141.166C397.186 141.302 397.357 141.49 397.464 141.71C397.572 141.93 397.611 142.173 397.579 142.413V158.06C398.513 157.196 399.633 156.524 400.866 156.087C402.099 155.649 403.418 155.457 404.737 155.522C407.486 155.476 410.153 156.39 412.205 158.082C414.305 159.789 415.498 162.533 415.784 166.314L416.548 176.025Z" fill="#CC8343"/>
<path d="M441.577 181.962C440.682 181.962 440.229 181.62 440.229 180.936V180.726C440.402 179.971 440.818 179.283 441.422 178.751C442.183 178.035 442.629 177.083 442.675 176.08V147.698H439.585C439.132 147.71 438.687 147.807 438.277 147.983C437.867 148.16 437.5 148.412 437.199 148.725C436.507 149.37 435.935 150.115 435.505 150.932C435.105 151.718 434.609 152.458 434.025 153.139C433.836 153.421 433.579 153.66 433.275 153.837C432.972 154.015 432.629 154.127 432.272 154.165H431.281C430.196 154.165 429.707 153.635 429.826 152.598L431.019 145.26C431.016 145.024 431.067 144.791 431.168 144.575C431.27 144.359 431.419 144.166 431.608 144.007C431.796 143.849 432.018 143.729 432.26 143.656C432.502 143.582 432.758 143.557 433.011 143.582H462.991C463.243 143.563 463.497 143.591 463.737 143.666C463.976 143.741 464.196 143.862 464.383 144.019C464.57 144.176 464.72 144.368 464.823 144.581C464.927 144.795 464.981 145.026 464.984 145.26L466.177 152.653C466.228 152.845 466.228 153.045 466.179 153.237C466.129 153.429 466.03 153.607 465.89 153.757C465.734 153.899 465.547 154.009 465.341 154.079C465.136 154.15 464.916 154.179 464.697 154.165H463.707C463.35 154.127 463.007 154.015 462.703 153.837C462.4 153.66 462.143 153.421 461.954 153.139C461.367 152.454 460.859 151.714 460.438 150.932C459.99 150.111 459.398 149.365 458.685 148.725C458.374 148.408 457.997 148.154 457.576 147.978C457.156 147.801 456.701 147.706 456.239 147.698H453.209V176.08C453.254 177.083 453.7 178.035 454.461 178.751C455.065 179.283 455.481 179.971 455.654 180.726V180.936C455.654 181.62 455.189 181.962 454.259 181.962H441.577Z" fill="#CC8343"/>
<path d="M494.2 158.601C494.132 159.006 493.902 159.372 493.556 159.627C493.061 160.097 492.629 160.619 492.268 161.183C491.839 161.874 491.62 162.66 491.635 163.456V176.08C491.679 177.073 492.102 178.019 492.828 178.751C493.431 179.284 493.846 179.972 494.021 180.726V180.936C494.021 181.62 493.592 181.962 492.745 181.962H484.394C484.197 181.968 484.001 181.938 483.816 181.874C483.632 181.809 483.463 181.712 483.32 181.587C483.174 181.464 483.059 181.314 482.983 181.146C482.907 180.979 482.871 180.797 482.879 180.616V180.13C481.914 180.943 480.785 181.571 479.556 181.978C478.328 182.385 477.024 182.563 475.721 182.503C473.924 182.531 472.139 182.228 470.47 181.613C468.801 180.997 467.28 180.08 465.998 178.916C463.302 176.518 461.949 173.208 461.942 168.985C461.876 167.199 462.205 165.42 462.909 163.756C463.612 162.092 464.675 160.578 466.033 159.307C467.286 158.088 468.797 157.121 470.472 156.466C472.147 155.81 473.95 155.482 475.768 155.5C478.34 155.383 480.863 156.172 482.831 157.707V157.442C482.816 157.183 482.88 156.925 483.015 156.697C483.15 156.469 483.35 156.28 483.594 156.151C484.219 155.842 484.941 155.744 485.634 155.875L492.792 156.846C492.995 156.853 493.194 156.898 493.377 156.979C493.559 157.06 493.722 157.175 493.854 157.317C493.987 157.459 494.086 157.625 494.145 157.804C494.205 157.983 494.223 158.172 494.2 158.358V158.601ZM478.035 179.865C478.55 179.882 479.061 179.782 479.525 179.575C479.989 179.367 480.391 179.058 480.696 178.673C481.451 177.716 481.83 176.547 481.769 175.363V164.946C481.844 163.217 481.29 161.515 480.194 160.113C479.794 159.544 479.251 159.073 478.611 158.741C477.971 158.408 477.254 158.224 476.52 158.204C473.649 158.204 472.114 160.411 471.915 164.825C471.877 166.79 472.061 168.754 472.464 170.684C472.846 172.843 473.553 174.941 474.563 176.919C475.494 178.839 476.675 179.821 478.035 179.865Z" fill="#CC8343"/>
<path d="M528.917 176.08C529.015 177.048 529.399 177.971 530.026 178.751C530.548 179.332 530.891 180.034 531.016 180.781V180.991C531.016 181.675 530.551 182.017 529.609 182.017H517.941C517.01 182.017 516.545 181.675 516.545 180.991V180.781C516.705 180.032 517.09 179.34 517.655 178.784C518.339 178.029 518.692 177.064 518.645 176.08L518.06 166.425C518.043 164.482 517.638 162.56 516.867 160.753C516.622 160.24 516.215 159.806 515.701 159.509C515.186 159.212 514.586 159.065 513.98 159.086C513.414 159.062 512.852 159.18 512.352 159.426C511.853 159.673 511.434 160.04 511.141 160.488C510.444 161.657 510.113 162.983 510.186 164.317V176.08C510.234 177.097 510.689 178.061 511.463 178.784C512.104 179.312 512.553 180.009 512.751 180.781V180.991C512.751 181.675 512.286 182.017 511.344 182.017H498.805C497.875 182.017 497.409 181.675 497.409 180.991V180.781C497.607 180.011 498.052 179.315 498.686 178.784C499.462 178.061 499.921 177.098 499.974 176.08V165.454C499.998 164.746 499.724 164.058 499.211 163.534C498.743 163.042 498.228 162.592 497.672 162.187C497.447 162.056 497.258 161.878 497.122 161.667C496.985 161.456 496.904 161.219 496.884 160.973V160.808C496.884 160.344 497.35 159.892 498.28 159.462L506.452 155.732C506.703 155.594 506.99 155.521 507.282 155.521C507.573 155.521 507.86 155.594 508.111 155.732C508.31 155.897 508.464 156.102 508.561 156.332C508.659 156.562 508.696 156.81 508.671 157.056V159.594C510.302 156.894 513.085 155.544 517.022 155.544C519.807 155.496 522.504 156.445 524.55 158.193C526.65 159.951 527.843 162.809 528.129 166.767L528.917 176.08Z" fill="#CC8343"/>
<path d="M560.006 155.732C561.724 155.522 562.571 155.897 562.571 156.835V178.53C562.571 183.098 561.056 186.608 558.026 189.057C554.857 191.546 550.799 192.852 546.645 192.721C543.499 192.797 540.391 192.072 537.661 190.624C536.545 190.112 535.602 189.327 534.934 188.354C534.265 187.382 533.896 186.259 533.868 185.107C533.856 184.636 533.948 184.168 534.139 183.732C534.33 183.295 534.615 182.9 534.977 182.569C535.381 182.217 535.858 181.945 536.379 181.769C536.899 181.592 537.453 181.515 538.007 181.543C539.01 181.513 539.989 181.832 540.751 182.436C541.484 183.025 542.074 183.751 542.481 184.566C542.887 185.394 543.268 186.232 543.674 187.071C544.016 187.905 544.554 188.659 545.249 189.278C545.94 189.874 546.845 190.212 547.79 190.227C550.868 190.293 552.407 186.928 552.407 180.13C550.39 181.515 547.912 182.202 545.404 182.072C544.028 182.091 542.663 181.853 541.39 181.371C540.117 180.889 538.962 180.174 537.995 179.269C536.963 178.319 536.155 177.181 535.621 175.928C535.087 174.674 534.84 173.332 534.894 171.986V162.971C534.859 161.966 534.436 161.007 533.701 160.267C533.121 159.775 532.707 159.139 532.508 158.435V158.226C532.508 157.497 532.949 157.122 533.844 156.979L542.541 155.875C544.366 155.666 545.285 156.019 545.285 156.979L545.129 172.891C545.129 176.599 546.203 178.409 548.458 178.409C549.008 178.403 549.549 178.272 550.031 178.028C550.514 177.783 550.924 177.433 551.226 177.007C552.037 175.994 552.457 174.758 552.419 173.498V162.871C552.389 161.866 551.965 160.905 551.226 160.168C550.647 159.675 550.233 159.04 550.033 158.336V158.126C550.033 157.398 550.474 157.023 551.369 156.88L560.006 155.732Z" fill="#CC8343"/>
<path d="M598.576 158.601C598.508 159.006 598.278 159.372 597.932 159.627C597.437 160.097 597.005 160.619 596.643 161.183C596.215 161.874 595.996 162.66 596.011 163.456V176.08C596.055 177.073 596.478 178.019 597.204 178.751C597.806 179.284 598.222 179.972 598.397 180.726V180.936C598.397 181.62 597.967 181.962 597.12 181.962H588.769C588.572 181.968 588.376 181.938 588.192 181.874C588.008 181.809 587.839 181.712 587.696 181.587C587.55 181.464 587.435 181.314 587.359 181.146C587.282 180.979 587.247 180.797 587.254 180.616V180.13C586.289 180.943 585.16 181.571 583.932 181.978C582.703 182.385 581.4 182.563 580.096 182.503C578.299 182.531 576.515 182.228 574.845 181.613C573.176 180.997 571.656 180.08 570.373 178.916C567.677 176.518 566.325 173.208 566.317 168.985C566.251 167.199 566.581 165.42 567.284 163.756C567.988 162.092 569.051 160.578 570.409 159.307C571.662 158.088 573.173 157.121 574.848 156.466C576.523 155.81 578.326 155.482 580.144 155.5C582.715 155.383 585.239 156.172 587.207 157.707V157.442C587.192 157.183 587.255 156.925 587.39 156.697C587.525 156.469 587.726 156.28 587.97 156.151C588.594 155.842 589.316 155.744 590.01 155.875L597.168 156.846C597.371 156.853 597.57 156.898 597.752 156.979C597.935 157.06 598.098 157.175 598.23 157.317C598.362 157.459 598.461 157.625 598.521 157.804C598.58 157.983 598.599 158.172 598.576 158.358V158.601ZM582.411 179.865C582.926 179.882 583.437 179.782 583.901 179.575C584.364 179.367 584.766 179.058 585.071 178.673C585.827 177.716 586.206 176.547 586.145 175.363V164.946C586.22 163.217 585.665 161.515 584.57 160.113C584.17 159.544 583.626 159.073 582.986 158.741C582.347 158.408 581.629 158.224 580.896 158.204C578.024 158.204 576.489 160.411 576.291 164.825C576.231 166.796 576.395 168.767 576.78 170.706C577.162 172.865 577.869 174.963 578.879 176.941C579.834 178.839 581.027 179.821 582.411 179.865Z" fill="#CC8343"/>
</svg>
